<?xml version="1.0" encoding="UTF-8"?>
<svg width="800" height="600" xmlns="http://www.w3.org/2000/svg">
  <!-- Styles -->
  <defs>
    <linearGradient id="headerGradient" x1="0%" y1="0%" x2="100%" y2="0%">
      <stop offset="0%" style="stop-color:#3b5998;stop-opacity:1" />
      <stop offset="100%" style="stop-color:#8b9dc3;stop-opacity:1" />
    </linearGradient>
    <linearGradient id="componentGradient" x1="0%" y1="0%" x2="100%" y2="0%">
      <stop offset="0%" style="stop-color:#f0f4f8;stop-opacity:1" />
      <stop offset="100%" style="stop-color:#d8e2f3;stop-opacity:1" />
    </linearGradient>
    <filter id="shadow" x="-10%" y="-10%" width="120%" height="120%">
      <feDropShadow dx="2" dy="2" stdDeviation="3" flood-opacity="0.3"/>
    </filter>
  </defs>
  
  <!-- Title -->
  <rect x="200" y="20" width="400" height="50" rx="5" fill="url(#headerGradient)" filter="url(#shadow)"/>
  <text x="400" y="52" font-family="Arial" font-size="20" fill="white" text-anchor="middle">Decision Service Architecture</text>
  
  <!-- Main Components -->
  <!-- Orchestrator -->
  <rect x="300" y="100" width="200" height="80" rx="5" fill="url(#componentGradient)" stroke="#3b5998" stroke-width="2" filter="url(#shadow)"/>
  <text x="400" y="140" font-family="Arial" font-size="16" fill="#333" text-anchor="middle">DecisionService</text>
  <text x="400" y="160" font-family="Arial" font-size="12" fill="#666" text-anchor="middle">(Orchestrator)</text>
  
  <!-- Components -->
  <!-- Detector -->
  <rect x="100" y="250" width="160" height="80" rx="5" fill="url(#componentGradient)" stroke="#3b5998" stroke-width="2" filter="url(#shadow)"/>
  <text x="180" y="290" font-family="Arial" font-size="14" fill="#333" text-anchor="middle">NarrativeDecisionDetector</text>
  <text x="180" y="310" font-family="Arial" font-size="12" fill="#666" text-anchor="middle">(Detection)</text>
  
  <!-- Generator -->
  <rect x="320" y="250" width="160" height="80" rx="5" fill="url(#componentGradient)" stroke="#3b5998" stroke-width="2" filter="url(#shadow)"/>
  <text x="400" y="290" font-family="Arial" font-size="14" fill="#333" text-anchor="middle">AIDecisionGenerator</text>
  <text x="400" y="310" font-family="Arial" font-size="12" fill="#666" text-anchor="middle">(Generation)</text>
  
  <!-- History -->
  <rect x="540" y="250" width="160" height="80" rx="5" fill="url(#componentGradient)" stroke="#3b5998" stroke-width="2" filter="url(#shadow)"/>
  <text x="620" y="290" font-family="Arial" font-size="14" fill="#333" text-anchor="middle">DecisionHistoryService</text>
  <text x="620" y="310" font-family="Arial" font-size="12" fill="#666" text-anchor="middle">(History)</text>
  
  <!-- AI Client -->
  <rect x="320" y="400" width="160" height="80" rx="5" fill="url(#componentGradient)" stroke="#3b5998" stroke-width="2" filter="url(#shadow)"/>
  <text x="400" y="440" font-family="Arial" font-size="14" fill="#333" text-anchor="middle">AIServiceClient</text>
  <text x="400" y="460" font-family="Arial" font-size="12" fill="#666" text-anchor="middle">(API Client)</text>
  
  <!-- Narrative System -->
  <rect x="50" y="500" width="200" height="60" rx="5" fill="#f8f4f0" stroke="#986a3b" stroke-width="2" filter="url(#shadow)"/>
  <text x="150" y="535" font-family="Arial" font-size="14" fill="#333" text-anchor="middle">Narrative System</text>
  
  <!-- Game State -->
  <rect x="550" y="500" width="200" height="60" rx="5" fill="#f8f4f0" stroke="#986a3b" stroke-width="2" filter="url(#shadow)"/>
  <text x="650" y="535" font-family="Arial" font-size="14" fill="#333" text-anchor="middle">Game State</text>
  
  <!-- AI Service -->
  <rect x="320" y="520" width="160" height="60" rx="5" fill="#f0f8f4" stroke="#3b9873" stroke-width="2" filter="url(#shadow)"/>
  <text x="400" y="555" font-family="Arial" font-size="14" fill="#333" text-anchor="middle">External AI Service</text>
  
  <!-- Connections -->
  <!-- Orchestrator to Components -->
  <line x1="335" y1="180" x2="180" y2="250" stroke="#666" stroke-width="2" stroke-dasharray="5,5"/>
  <line x1="400" y1="180" x2="400" y2="250" stroke="#666" stroke-width="2" stroke-dasharray="5,5"/>
  <line x1="465" y1="180" x2="620" y2="250" stroke="#666" stroke-width="2" stroke-dasharray="5,5"/>
  
  <!-- Generator to Client -->
  <line x1="400" y1="330" x2="400" y2="400" stroke="#666" stroke-width="2"/>
  
  <!-- Client to AI Service -->
  <line x1="400" y1="480" x2="400" y2="520" stroke="#666" stroke-width="2"/>
  
  <!-- Detector to Narrative -->
  <line x1="150" y1="330" x2="150" y2="500" stroke="#666" stroke-width="2"/>
  
  <!-- History to Game State -->
  <line x1="620" y1="330" x2="650" y2="500" stroke="#666" stroke-width="2"/>
  
  <!-- Legend -->
  <rect x="600" y="40" width="20" height="10" fill="url(#componentGradient)" stroke="#3b5998" stroke-width="1"/>
  <text x="625" y="48" font-family="Arial" font-size="12" fill="#333">Core Component</text>
  
  <rect x="600" y="60" width="20" height="10" fill="#f8f4f0" stroke="#986a3b" stroke-width="1"/>
  <text x="625" y="68" font-family="Arial" font-size="12" fill="#333">System Integration</text>
  
  <rect x="600" y="80" width="20" height="10" fill="#f0f8f4" stroke="#3b9873" stroke-width="1"/>
  <text x="625" y="88" font-family="Arial" font-size="12" fill="#333">External Service</text>
  
  <line x1="600" y1="100" x2="620" y2="100" stroke="#666" stroke-width="2"/>
  <text x="625" y="104" font-family="Arial" font-size="12" fill="#333">Direct Dependency</text>
  
  <line x1="600" y1="120" x2="620" y2="120" stroke="#666" stroke-width="2" stroke-dasharray="5,5"/>
  <text x="625" y="124" font-family="Arial" font-size="12" fill="#333">Composition</text>
</svg>